<svg xmlns="http://www.w3.org/2000/svg" width="440" fill="#445747" height="440" version="1.0" viewBox="0 0 330 330"><path d="M160.5 31.1a75 75 0 0 0-10.4 20.7 48.4 48.4 0 0 0-2.1 18c0 6.5-.3 18.7-.7 27l-.6 15.2H23.3l-3.4 2.3c-4.9 3.3-6 6.1-5.3 13.7 1 10 4.2 12.5 25.5 19.8 14.1 4.9 10.7 4.3 62.8 10.1 27.8 3.1 43.6 5.3 44.1 6.1.4.6 1 5.4 1.4 10.6a2909.5 2909.5 0 0 0 10.1 99.2c-.2.2-6.3 1.5-13.7 3l-13.3 2.7v4c0 5.8 2.9 7 17.9 7.1l12 .1 1.6 5.9c.8 3.3 1.9 5.9 2.4 5.9s1.6-2.7 2.5-6l1.6-6 9.6.3c14.9.6 21.3-1.9 20.7-8.2l-.3-3.1-13.3-2.6c-7.3-1.5-13.5-2.9-13.8-3.1-.2-.3.5-7.6 1.6-16.4 2.2-17.3 4.9-43.8 7.6-74.4l1.9-19.8c.2-.2 20-2.5 44.1-5.2 51.5-5.8 48.1-5.2 61.4-9.6 12.9-4.2 24-10 25.7-13.4 1.8-3.6 1.7-15-.3-17.8-3.7-5.3-2.5-5.2-69.2-5.2h-61.9l-.7-27.8c-.8-29.8-1.3-32.7-7.3-44.6-6-12-9.9-14.3-14.8-8.5z"/></svg>