<svg xmlns="http://www.w3.org/2000/svg" version="1.0" viewBox="0 0 120 53"><path fill="#ED1C24" d="M27.9.4c-.3.3-4.2.8-8.8 1.1-4.6.3-9.3 1.1-10.4 1.6a7 7 0 0 1-4.3.6c-1.9-.3-2.3 0-2.3 2.2A63 63 0 0 1 .4 18.7c-.4 1.6-.1 2.5 1 2.9.9.3 1.6 1.2 1.6 2 0 1.9 3.4 1.8 5-.2.8-.8 2.5-1.4 3.9-1.3 1.4.1 3.4-.1 4.3-.5 2.4-1.1 5.5.9 8.4 5.6 2.4 3.7 2.6 4.9 2.2 11.4-.5 7.8-1.6 10.1-5.1 10.6-1.2.2-2.3 1.1-2.5 2-.3 1.5.4 1.8 4 1.8 4.6 0 6.7-1.6 9-6.6l1.1-2.4 2.8 2.6c3.8 3.6 10.2 4 10.7.6.3-1.9-.1-2.2-2.7-2.2-1.6 0-3.3-.5-3.7-1.1-.9-1.5 3.8-10.8 5.6-10.9 10.9-.6 13.8-.8 15.5-1.4 1.7-.6 2.4.1 4.3 3.9 3.5 7.2 2.6 12.8-2.3 13.7-2.9.5-2.5 3.2.6 3.6 2.1.2 3.5-.7 6.6-4.2 3.8-4.3 3.9-4.6 3.5-10.8-.3-4.7 0-6.7 1-7.6 1.2-1 2.8.1 8.6 6.2 7.5 7.7 8.7 10.7 5.2 12.6-3.1 1.6-2.5 4 1 4 3.4 0 4.5-1.6 5.3-8 .4-3.4 0-5.6-1.8-9.5A44.2 44.2 0 0 1 89.6 20c.2 0 3.3 2 6.9 4.5 8.8 6 16.4 7.9 22 5.5 1.5-.6.7-.9-3.1-.9-6.3-.1-11.4-3.2-22.7-13.9a77.2 77.2 0 0 0-12.3-9.7 91 91 0 0 0-31.9-2.9c-7.1.5-9.9.3-12.9-1-3.8-1.6-6.8-2-7.7-1.2z"/></svg>
