<svg xmlns="http://www.w3.org/2000/svg" viewBox="0 0 323 208">
    <path fill="#f4e728" d="M60 208h216L168 0Z"/>
    <path d="m280 134-2 1a43 43 0 0 1-7 6 26 26 0 0 1-7 3 18 18 0 0 1-5 1 8 8 0 0 1-3-1 7 7 0 0 1-4-4 23 23 0 0 1-1-3v-1h-1a42 42 0 0 1-7 6l-3 1a20 20 0 0 1-12 2 11 11 0 0 1-4-2 9 9 0 0 1-4-6 18 18 0 0 1 0-5h-1a65 65 0 0 1-7 6 40 40 0 0 1-20 7h-4a22 22 0 0 1-10-3 16 16 0 0 1-8-12v-3l-4 3-3 2a30 30 0 0 1-8 2l-5 1-1 1a37 37 0 0 1-13 7 30 30 0 0 1-14 2 18 18 0 0 1-11-6 16 16 0 0 1-3-6l-1-2a5 5 0 0 0-1 1 51 51 0 0 1-10 9h-1a7 7 0 0 1-1 1l-8 4a20 20 0 0 1-4 1 13 13 0 0 0-3 0 32 32 0 0 1-5 0h-3a36 36 0 0 1-6-1l-6-2-4-1-6-2-5-2-5-2-2-1h-1l-2 2a32 32 0 0 1-13 8l-5 1h-1a27 27 0 0 1-6-1 13 13 0 0 1-4-2 9 9 0 0 1-4-4 11 11 0 0 1-1-5 12 12 0 0 1 3-7 19 19 0 0 1 4-4 23 23 0 0 1 8-2 42 42 0 0 1 5 0h3a58 58 0 0 1 6 1h3l1-1a83 83 0 0 0 6-8 174 174 0 0 0 8-15l4-7-1-1h-1a14 14 0 0 1-4 0h-1a3 3 0 0 1-1-1l-5-1a38 38 0 0 1-7-2 8 8 0 0 1-2-2 6 6 0 0 1-1-4v-1a4 4 0 0 1 4-4 6 6 0 0 1 4 1 48 48 0 0 0 10 4h5a18 18 0 0 0 4 1 2 2 0 0 0 1-1l5-9a73 73 0 0 1 10-15 41 41 0 0 1 9-8 31 31 0 0 1 7-3l4-1 6-1h3a15 15 0 0 1 3 0l3 1a18 18 0 0 1 10 7 16 16 0 0 1 3 6 13 13 0 0 1 0 4 27 27 0 0 1-11 19 36 36 0 0 1-9 5 33 33 0 0 1-6 2l-3 1-4 1a5 5 0 0 0-1 0h-1a31 31 0 0 0-4 1h-9l-7 1-2 3-4 9a165 165 0 0 1-14 22 2 2 0 0 0 0 1l1 1 11 4a124 124 0 0 0 14 4 33 33 0 0 0 6 1h2a22 22 0 0 0 4 0 21 21 0 0 0 8-3 30 30 0 0 0 8-6 50 50 0 0 0 5-6 77 77 0 0 0 5-6l2-4 1-1 1-2a44 44 0 0 1 11-12 34 34 0 0 1 14-7 28 28 0 0 1 10 0 21 21 0 0 1 8 3 16 16 0 0 1 7 10 21 21 0 0 1 0 7 29 29 0 0 1-2 10 44 44 0 0 1-3 7l-1 1a6 6 0 0 0 2-1 25 25 0 0 0 9-5 33 33 0 0 0 3-3 5 5 0 0 0 1-2 42 42 0 0 1 18-23 30 30 0 0 1 10-4 28 28 0 0 1 11 0 15 15 0 0 1 8 5 14 14 0 0 1 2 3 4 4 0 0 1 0 2 14 14 0 0 1-2 10 9 9 0 0 1-5 4 6 6 0 0 1-6-2 6 6 0 0 1-2-5 8 8 0 0 1 4-5l1-1a4 4 0 0 0-1-1 8 8 0 0 0-3-1 16 16 0 0 0-9 2 25 25 0 0 0-7 5 32 32 0 0 0-8 17 12 12 0 0 0 1 5 10 10 0 0 0 7 8 19 19 0 0 0 10 0 30 30 0 0 0 13-6 52 52 0 0 0 14-17 14 14 0 0 1 1-2l1-3 4-9 4-8h11v1l-4 9-7 16-3 6a6 6 0 0 0 0 2 6 6 0 0 0-2 4v3a4 4 0 0 0 5 3 13 13 0 0 0 7-1 31 31 0 0 0 8-7 12 12 0 0 0 3-4l4-9 3-8 4-8 2-5 1-2h12l-1 1-4 11-7 14-5 13a15 15 0 0 0-1 3 3 3 0 0 0 0 3 1 1 0 0 0 1 0 6 6 0 0 0 4 0 16 16 0 0 0 5-4 62 62 0 0 0 6-6 15 15 0 0 1 3-8 9 9 0 0 1 3-3 6 6 0 0 1 2-1h2l5-8 5-7 4-8h14l-2 4a55 55 0 0 0 2 5l3 8a53 53 0 0 1 3 8 25 25 0 0 1-2 16 22 22 0 0 1-3 5 22 22 0 0 1-8 6 28 28 0 0 1-8 2h-6a26 26 0 0 1-8-3 18 18 0 0 1-8-8Zm-142-2v-1a7 7 0 0 1 0-4 8 8 0 0 1 4-5 6 6 0 0 1 4-1h2v-1a27 27 0 0 0 2-5 18 18 0 0 0 0-8 9 9 0 0 0-5-7 12 12 0 0 0-7 0 21 21 0 0 0-7 3 29 29 0 0 0-12 16 19 19 0 0 0-1 8 9 9 0 0 0 5 7 12 12 0 0 0 7 1 18 18 0 0 0 7-2l1-1ZM69 82l4-1h4a6 6 0 0 0 2 0l6-1a62 62 0 0 0 6-2 35 35 0 0 0 7-3 19 19 0 0 0 9-9 10 10 0 0 0 1-5 4 4 0 0 0-1-1 7 7 0 0 0-2-4 12 12 0 0 0-5-2 23 23 0 0 0-17 6 39 39 0 0 0-6 7 94 94 0 0 0-8 14v1Zm220 45a9 9 0 0 0 1 6 8 8 0 0 0 6 4 12 12 0 0 0 13-5l2-3a8 8 0 0 0 0-3 23 23 0 0 0 0-9l-1-4-2-4-1-5-2-5v-1l-1 1-4 8-6 8v2a7 7 0 0 1 0 6 8 8 0 0 1-4 3l-1 1Zm-264 6a11 11 0 0 0-3-1 30 30 0 0 0-6 0 8 8 0 0 0-2 1 4 4 0 0 0-2 1 2 2 0 0 0 1 3 5 5 0 0 0 1 1 10 10 0 0 0 7-2 25 25 0 0 0 4-2v-1Zm266 47-1 1h-6l-1-1h1l1-1a1 1 0 0 0 1-1v-10l-2-2-1-1h10a7 7 0 0 1 2 1 4 4 0 0 1 0 6 9 9 0 0 1-2 1l5 5a4 4 0 0 0 2 1v2a20 20 0 0 1-4 0l-3-4a29 29 0 0 0-3-3h-1a19 19 0 0 0 0 5l2 1Zm2-9v-4l-2-1-2 1a28 28 0 0 0 0 5 4 4 0 0 0 4-1Zm-138-5h-2v-1h8a8 8 0 0 1 3 0 4 4 0 0 1 1 7 4 4 0 0 1-2 1v1l4 3a8 8 0 0 0 2 2l1 1v1h-4a2 2 0 0 1-1-1l-2-2-3-4-1-1a14 14 0 0 0 0 6l1 1v1h-7v-1l2-1v-13Zm4 6a6 6 0 0 0 2 0 2 2 0 0 0 1-1 4 4 0 0 0 0-4 2 2 0 0 0-1-1h-2a15 15 0 0 0 0 6Zm-115 9a9 9 0 0 1-6-2 8 8 0 0 1-2-3 10 10 0 0 1 0-5 6 6 0 0 1 0-2 8 8 0 0 1 5-4 10 10 0 0 1 8 0 8 8 0 0 1 4 7 9 9 0 0 1-1 4 8 8 0 0 1-4 5 8 8 0 0 1-4 0Zm-5-8a8 8 0 0 0 1 4 5 5 0 0 0 8 0 6 6 0 0 0 1-2 15 15 0 0 0 0-4 6 6 0 0 0-2-5 4 4 0 0 0-4 0 5 5 0 0 0-3 3 9 9 0 0 0-1 4Zm137 0a8 8 0 0 1 7-9 11 11 0 0 1 5 1 8 8 0 0 1 5 6 9 9 0 0 1 0 4 8 8 0 0 1-4 5 10 10 0 0 1-8 1 8 8 0 0 1-6-8Zm3 0v1a7 7 0 0 0 1 4 5 5 0 0 0 8 0 5 5 0 0 0 1-2 11 11 0 0 0 0-4 9 9 0 0 0-1-4 5 5 0 0 0-4-2 4 4 0 0 0-4 2 8 8 0 0 0-1 5Zm95-4a2 2 0 0 1-1-1 3 3 0 0 0-2-2h-3v5h2a3 3 0 0 0 1-2 1 1 0 0 1 1 1v5h-1l-1-2a2 2 0 0 0-2 0v1a20 20 0 0 0 0 5h1a15 15 0 0 0 3 0 3 3 0 0 0 3-2 1 1 0 0 1 0-1h1v4a1 1 0 0 1-1 1h-12l-1-1 2-1a5 5 0 0 0 1-2v-9a5 5 0 0 0-1-1l-2-2h12l1 1v2a1 1 0 0 1-1 1Zm-141 0a1 1 0 0 1-1 0l-1-1a3 3 0 0 0-2-2h-3a16 16 0 0 0 0 5 3 3 0 0 0 2 0 2 2 0 0 0 1-1v-1a1 1 0 0 1 1 1v5h-1v-1l-3-1v5l1 1h3a3 3 0 0 0 3-2v-1h1a29 29 0 0 1 0 5h-13a1 1 0 0 1 0-1l1-1a13 13 0 0 0 1-3v-7a8 8 0 0 0-1-3h-1v-1h12v4Zm-21 7h1v4a1 1 0 0 1-1 1 10 10 0 0 1-3 0h-9a1 1 0 0 1-1-1l2-1v-13h-1l-1-1h13v4h-1l-1-1a3 3 0 0 0-3-2h-2a12 12 0 0 0 0 6l2-1a2 2 0 0 0 1-1 1 1 0 0 1 1-1 1 1 0 0 1 0 1v5h-1v-1a6 6 0 0 0-3-1 2 2 0 0 0 0 1v5a1 1 0 0 0 1 0h3a3 3 0 0 0 2-2l1-1Zm-84 4h-2a8 8 0 0 1-6 1 8 8 0 0 1-7-6 11 11 0 0 1 0-3c0-3 2-5 4-7a9 9 0 0 1 8 0l1 1 2-1v6l-1-2a4 4 0 0 0-2-2 4 4 0 0 0-7 1 9 9 0 0 0-1 7 6 6 0 0 0 1 2 5 5 0 0 0 3 3 5 5 0 0 0 3-1 5 5 0 0 0 3-2v-2h1v5Zm288-15 1 4a1 1 0 0 1-1 1l-1-1v-1a3 3 0 0 0-4-2 2 2 0 0 0-1 2 2 2 0 0 0 0 1 3 3 0 0 0 2 1l2 1 1 1a4 4 0 0 1 3 4 5 5 0 0 1-3 4 6 6 0 0 1-6 1l-1-1h-1a21 21 0 0 1 0-5h1a10 10 0 0 0 0 3 4 4 0 0 0 5 2l2-4a4 4 0 0 0-2-1l-2-2h-2c-2-1-2-3-2-5a5 5 0 0 1 4-4 6 6 0 0 1 3 1h2ZM62 179a2 2 0 0 0 1-1v-10a2 2 0 0 0-1-2h-1a1 1 0 0 1 0-1 2 2 0 0 1 1 0h10a1 1 0 0 1 1 0v4h-1a8 8 0 0 0-1-1 3 3 0 0 0-2-2h-3v6a2 2 0 0 0 3-1v-1h1v6h-1v-2a2 2 0 0 0-3 0v1a16 16 0 0 0 0 4l3 1-1 1h-7v-1l1-1Zm137 1a7 7 0 0 0 2-3l5-11v-1a1 1 0 0 1 1-1l1 1 1 2 4 10 3 3-1 1a15 15 0 0 0-3 0h-4v-1l2-1v-1a14 14 0 0 0-1-3h-5a7 7 0 0 0-1 4l1 1v1h-5v-1Zm9-7a13 13 0 0 0-2-4 26 26 0 0 0-1 4Zm-120 8h-8v-1l2-1a97 97 0 0 0 0-12 2 2 0 0 0-2-1v-1h12v5-1l-1-1a3 3 0 0 0-3-2h-2a5 5 0 0 0-1 2v4a6 6 0 0 0 2 0 2 2 0 0 0 1-1 4 4 0 0 1 1-1l1 1v5h-1l-1-1c0-2-1-1-2-2h-1v5l1 1 2 1v1Zm136-1-1 1-1-1a13 13 0 0 1 0-4l1-1 1 2a4 4 0 0 0 2 2 4 4 0 0 0 3 1 2 2 0 0 0 1-1 3 3 0 0 0-1-4l-2-1-2-1a4 4 0 0 1-2-4 5 5 0 0 1 2-4 6 6 0 0 1 5 0h2a12 12 0 0 1 0 5h-1v-2l-1-1a3 3 0 0 0-3-1 2 2 0 0 0-1 0 2 2 0 0 0 0 4l2 1 3 1c3 1 3 5 1 7a4 4 0 0 1-3 2 7 7 0 0 1-5-1Zm30-15h1a13 13 0 0 1 1 3v1l-1 1v-1l-1-1a2 2 0 0 0-2-2h-2a59 59 0 0 0 0 13l2 1v1a54 54 0 0 0-8 0v-1a3 3 0 0 0 2-1v-13a6 6 0 0 0-3 0 3 3 0 0 0-1 2l-1 2h-1v-5h14Z"/>
</svg>
