<svg xmlns="http://www.w3.org/2000/svg" viewBox="0 0 41 33">
  <path fill="currentColor" fill-rule="evenodd" d="m32.4 16 .9.8.8-.8-.8-.9-.9.9zM7.1 16l.8.8.8-.8-.8-.9-.8.9zm22.7-5c-.3 0-.8.2-.8.5 0 .4.8.8 1.5.8 2 0 3.2-1.7 3.2-3.3 0-1.6-1.3-3.6-4.1-3.5-3.3 0-5.7 2.5-5.8 7v.9h-1.5l.2-7.7h1.1c2.2 0 4-1.7 4-3.6 0-1.5-.7-2.1-1.1-2.1-.7 0-.5 2-3.1 2C20.5 2 18 .7 14.7.7A7.2 7.2 0 0 0 7 8.1c0 3.6 2.6 5.8 5.4 5.7 2.7-.1 4.7-1.9 4.7-4.1 0-2.2-1.5-2.7-2-2.7-.3 0-.5.3-.5 1.1 0 1.7-1.3 2.6-2.5 2.6-1 0-2.3-.7-2.3-2.5s1.3-3.7 4.6-3.7c1.4 0 3.4.4 4.4.7l-.4 8.4h-.3c-1 .2-1.9 1-2 1.8 0 .6.5.8 1.4.8h.8c-.4 4.8-1.9 5-2.5 5-.7 0-1.7-.6-1.7-1.7 0-2 1.5-2.3 1.5-2.8s-.9-.7-1.3-.7c-1.9 0-3.8 1.5-3.8 3.6 0 2.2 1.8 4.2 5.2 4.2 3.3 0 6-2.9 6.4-7.8h1.5l-.4 8.2c-.2 5.1-1.7 5.4-2.4 5.4-.6 0-1.6-.6-1.6-1.6 0-2 1.4-2.4 1.4-3 0-.5-1-.6-1.4-.6a3.8 3.8 0 0 0-3.7 3.8c.1 2.1 2 4 5.4 4 3.4-.1 6.1-3.3 6.2-8.5l.3-8h.8A2 2 0 0 0 30 14c0-.7-.5-.8-1.4-.8h-1.1v-2c0-2.2 1.3-3.1 2.1-3.2.8 0 1.5.6 1.5 1.4 0 .8-.4 1.6-1.3 1.6zm9.4 4.6h-1v-1.1h1c.3 0 .6.2.6.5s-.3.6-.6.6zm.6.8c.6-.2 1-.7 1-1.4 0-.9-.6-1.6-1.5-1.6h-2.1a.1.1 0 0 0-.2.2v4.7l.2.2h.8a.1.1 0 0 0 .2-.2v-1.8h.5l1 1.9h1l.1-.2-1-1.8zm-37.2-2c.4 0 .7.2 1 .4h.2l.5-.6a.1.1 0 0 0 0-.2c-.5-.4-1-.6-1.7-.6a2.6 2.6 0 1 0 1.7 4.4v-.2l-.5-.6h-.2c-.3.3-.6.4-1 .4-.8 0-1.4-.7-1.4-1.5s.6-1.4 1.4-1.4z"/>
</svg>
