<svg xmlns="http://www.w3.org/2000/svg" viewBox="0 0 130.3 138.9">
  <defs/>
  <path d="M37.5 3l.5-.9a2.7 2.7 0 01.5-.6c.6-.5 1-1.2 1.8-1.3a6.2 6.2 0 013.6.2A7.4 7.4 0 0147 2.7 34.5 34.5 0 0149.2 6l6.7 11.7A81.5 81.5 0 0161 28a7.6 7.6 0 002 2.9l.3-.3 7.2-7.3 8.3-8.2 8.6-8.3a2 2 0 011.7-.7l2.5.4c.8.2 1 .5 1 1.2a3.2 3.2 0 01-.4 2c-.4.4-.6 1-.9 1.6a9.8 9.8 0 01-2 2.9c-1.3 1.2-2.5 2.7-3.7 4l-1 1.1a158 158 0 00-12.3 12.5c-1 1-1.7 2.1-2.5 3.2a3 3 0 00-.7 2.2.7.7 0 010 .4 2.6 2.6 0 00.6 2.6l3.7 5.3 1.3 2.4c.6 1.2 1.2 2.3 2 3.4a63 63 0 013.8 7.1c1.4 2.8 2.7 5.5 4.2 8.1a30 30 0 002.5 3.8 11.3 11.3 0 011.8 3.3l.7 1.6v-2.6a25.5 25.5 0 010-5.2 2.6 2.6 0 012-2.3 2.5 2.5 0 012.8.8 6.6 6.6 0 011.6 3.2 28.1 28.1 0 01.5 5.7v5.9a13.8 13.8 0 002 7c1.6 2.5 2.9 5.1 4.4 7.6a17.7 17.7 0 004.9 5.7 5.6 5.6 0 011 1l11.6 14.3 6.5 8.1a13.9 13.9 0 012.9 5.3 16.4 16.4 0 01.4 3.1v4.7c0 1-.5 1.5-1.6 1.5a2.2 2.2 0 01-1.5-.5 31.6 31.6 0 01-2.7-2.5 65 65 0 01-5.8-7.6 136.6 136.6 0 00-11.3-14.2c-3.7-4.2-7.5-8.4-11-12.9l-2.1-2.9-.7-.8a4.7 4.7 0 00.3 1.9l1 4a19.7 19.7 0 01.2 2.7 76.6 76.6 0 01-.1 12.5 41.7 41.7 0 01-.8 4.3 2.2 2.2 0 01-1.6 1.6 47 47 0 01-6 1.5l-9.3 2.1a92.3 92.3 0 01-11.6 1.4 112.8 112.8 0 01-13.3.3 121.2 121.2 0 01-16-1.9q-4.5-.8-8.8-1.8a20.1 20.1 0 01-2.6-.8 1.9 1.9 0 01-1.3-1.9 5.5 5.5 0 01.9-3.4 2.1 2.1 0 011-.7 5.5 5.5 0 013-.3l11.1 1.6a119 119 0 0019.7 1 81 81 0 0015.8-2c2.3-.6 4.7-1 7.1-1.4a24.7 24.7 0 003.2-1 1.9 1.9 0 001.3-1.8 88.2 88.2 0 000-10.4c-.2-5.3-.7-10.5-.6-15.8a19.7 19.7 0 00-.2-2.8 6.7 6.7 0 00-.6-1.8 39.2 39.2 0 00-5-8.2 2.5 2.5 0 00-.7-.5l-.9-.5a8 8 0 01-.7-.6h-.8c-4.6.8-9.2 1.6-13.9 2.2-3.3.5-6.5.8-9.8 1.1a77 77 0 00-9.7 1.5 6.5 6.5 0 01-3 0c-.6-.2-1.2-.2-2-.3 0 .4-.2.7-.3 1a38.8 38.8 0 00-.9 10.3l.8 10.1a104.1 104.1 0 01.6 14.6l-.3 3.3a1.3 1.3 0 01-1.1 1.2 5.2 5.2 0 01-1.7.1l-3.2-.6a3.9 3.9 0 01-.7-.2 1.2 1.2 0 01-.7-1.2l-.4-6.3-.6-11.5-.2-8.1c0-1.9-.2-3.7-.3-5.6v-.4l-.2-.2a5 5 0 01-.3.5C26 91 22.4 95 19 99.2l-9.7 12a11.4 11.4 0 01-4 3 3.9 3.9 0 01-4.2-.2 2.4 2.4 0 01-1.1-2.3 11.7 11.7 0 012.3-6.3L8 98a36 36 0 003.4-4.9 19 19 0 012.5-3.6l3-4 7.7-10 1.7-2.5a3 3 0 011.7-1.3 2.4 2.4 0 001-.9 38.5 38.5 0 002.3-3.2c3.7-5.8 8.2-11 12.7-16.3 3.7-4.3 7.4-8.7 10.8-13.4a2.8 2.8 0 00.6-2.6 29 29 0 00-2.4-5.8l-1.2-2.3a11.4 11.4 0 01-1.5-3.7 6 6 0 00-.8-2 56.4 56.4 0 01-4.9-9.2 19 19 0 00-3.3-5l-3.1-3.5-.7-.8zm38 65.2a21 21 0 01-1.5-3.7 12.6 12.6 0 00-1.7-3.4c-1.1-1.6-2.3-3.2-3.3-5a48.5 48.5 0 00-3.7-5.3l-4-5.4-.5-.8-.5.7-5 5.6c-4.7 5.4-9 11.1-13.4 16.8l-2.2 2.8c-.3.4-.4.8.1 1.1a7.3 7.3 0 001.2 0c2.5-.3 5-.5 7.5-1a106 106 0 0110.8-1.7l8-1a21.3 21.3 0 016.4 0z"/>
</svg>
