<svg xmlns="http://www.w3.org/2000/svg" version="1.0" viewBox="0 0 100 100">
  <path d="M38 1.6a48.2 48.2 0 0 0-23.1 13.3 49 49 0 0 0 0 70.2 49 49 0 0 0 70.2 0 49 49 0 0 0 0-70.2A49.2 49.2 0 0 0 38 1.6zM18 39.4c0 3.4.1 3.5 3.3 2.9 4.5-.7 5.8 1.2 6.5 9.2.2 3.6.9 6.5 1.3 6.5.5 0 .9.4.9 1 0 1.2-6.7 1.3-7.4.1-.3-.5.1-1.1.9-1.5 2-.7 2.1-10.9.1-12.5-1.8-1.5-4.3-.5-5 2.2-1.1 4.3-.7 9.7.9 10.3C22.3 58.7 21 60 17 60s-5.3-1.3-2.5-2.4c2.2-.8 2.2-18.4 0-19.2-2.4-.9-1.7-2.4 1-2.4 2.2 0 2.5.4 2.5 3.4zm62.8.4c.2 1.4 1.1 2.2 2.4 2.2 1.1 0 1.8.5 1.5 1.2-.2.7-1.1 1.3-2 1.3-.9 0-1.7.4-1.7.8-.1 9.8.1 11.8 1.3 11.5.6-.3 1.3-1.7 1.5-3.1.5-3.8 2.2-3.3 2.2.6 0 3.8-1.5 5.7-4.6 5.7-2.8 0-3.4-1.7-3.4-9.1 0-3.3-.4-5.9-1-5.9-.5 0-1-.7-1-1.5s.5-1.5 1-1.5c.6 0 1-1.2 1-2.6 0-3.1 2.3-2.8 2.8.4zM42 43.5c.6.8 1.3 2.9 1.3 4.7.2 3.2.1 3.3-4.5 3.6-5.1.3-6.1 1.8-3.2 4.6 2.1 2.2 3.1 2 5-1 1.1-1.7 2-2.2 2.7-1.5.7.7.4 1.8-.7 3.5-1.9 3-6 3.5-8.8.9-2.3-2.1-2.5-10.9-.2-14.1 1.8-2.6 6.5-3 8.4-.7zm13.8-.3c.7.7 1.2 3.9 1.2 7.5 0 3.5.4 6.3 1 6.3s1-.9 1-2 .5-2 1.1-2c.6 0 .9 1.4.7 3.2l-.3 3.3-6.2.2c-5.4.2-6.4 0-7.4-1.8-1.7-3.3-.3-6.9 3.1-7.6 3.5-.7 5.4-2.7 4.6-4.9-.8-2.2-4.1-1.3-4.1 1.1 0 2.5-2.8 2.7-3.3.2-.8-3.9 5.6-6.5 8.6-3.5zm17 0c1.6 1.4 1.6 6.8-.1 6.8-2.1 0-2.8-1.2-1.5-2.7 1.7-2.1-.6-4.1-2.7-2.3-2.1 1.7-2.1 11.8 0 12.6C71.3 58.7 70 60 66 60c-2.2 0-4-.5-4-1 0-.6.5-1 1-1 .6 0 1-2.8 1-6.4 0-3.6-.4-6.8-1-7.1-.5-.3-1-1-1-1.5 0-1.2 9.2-1 10.8.2z"/>
  <path d="M36.2 45.2C34.1 47.3 34.9 49 38 49c1.8 0 3-.5 3-1.3 0-1.3-1.9-3.7-3-3.7-.3 0-1.1.5-1.8 1.2zm13.5 7.5c-1.3 1.2-.7 4.4.9 5 1.8.7 4.4-2 4.4-4.4 0-1.3-4.1-1.8-5.3-.6z"/>
</svg>
