<svg xmlns="http://www.w3.org/2000/svg" viewBox="0 0 149.86 99.63"><g id="Layer_2" data-name="Layer 2"><g id="Layer_1-2" data-name="Layer 1"><path d="M10.15,20.61,0,18c2.6-1.58,4.64-2.87,6.73-4.05a8.56,8.56,0,0,0,3.06-3.15,36.15,36.15,0,0,1,4.66-6.3c5.57-5.66,12.84-5.92,19-.83A26.26,26.26,0,0,1,37,7.25a66.93,66.93,0,0,1,4.35,5.87A89.24,89.24,0,0,0,61.15,34.8c12.5,9.9,24.81,20,37.47,29.74,5.56,4.26,11.77,7.69,17.71,11.46Q132,86,147.72,95.87c.69.44,1.35.94,2.14,1.5l-1.69,2.26c-.94-.55-1.83-1-2.68-1.56Q123.06,84,100.65,70a6.5,6.5,0,0,0-4.16-1.31c-11.89,1-23.81,1.2-36.07,1L42.63,89.28H37.82L55.75,69.41C30.64,62.32,15.67,46,10.15,20.61Z"/></g></g></svg>