<svg xmlns="http://www.w3.org/2000/svg" viewBox="0 0 37 20">
  <path fill="#373A36" d="M1 11.5C1.1 10 2.1 9 3.1 7.8c.5-.6 1.3-.9 2-1.3 1.6-.9 3.3-1.3 5-1.4.6 0 .7-.1.8-.7l.5-1.4c.6-1.2 1.3-2 2.7-2.2l.2-.1c.2-.3.4-.4.7-.5l1.5-.2h.5c.4 0 .9 0 1.2.2.4.3.8.4 1.3.5.9.2 1.5.7 1.8 1.6.3.8.5 1.7.6 2.6 0 .1 0 .2.2.3l2.3.5c1 .2 2 .5 2.7 1.2.6.5 1.3 1 1.8 1.6.5.6 1.1 1.2 1.6 2 .1-.5.4-.7.6-1C32.2 8 33.4 7.8 35 8c.4 0 .6.1 1 .3.6.4.5 1.1-.1 1.6-.6.4-1.2.5-2 .6-.3 0-.6.2-.9.6h1.5c.3-.2.7-.1 1 0 .5 0 .8.4.7.8 0 .4-.4.7-.8.6-.7 0-1.4.2-2.1 0-.1 0-.2 0-.2.2.4.6 1 1 1.7 1h.5c.5.1 1 .6 1 1.1 0 .6-.5 1-1.1 1h-.3c-1.3.3-2.3-.1-3.2-1.1-.2-.4-.5-.7-.9-1 0 0-.1-.2-.2 0l-.9.9c-.5.7-1 1.3-1.7 1.8a9.3 9.3 0 0 1-4 2l-2 .6c-1.3.5-2.6.8-4 .8l-2.7.2H11.7c-.4-.2-1-.1-1.4-.2-1-.2-1.9-.4-2.8-.4a7.6 7.6 0 0 1-4-1.4c-1.3-.9-2.3-2-2.5-3.6l-.1-.5v-2.4Z"/>
  <path fill="#373A36" d="M20.4 4.7 20 2.8a1 1 0 0 0-.8-.6L18 2l-3.7.3c-.4 0-.7.2-1 .6-.3.5-.6 1-.7 1.7-.1.2 0 .3.2.3h7.4c.2.1.3.1.3-.1Z"/>
  <path fill="#FEFEFE" d="M16.4 2.6c-.6 0-1 .4-1 .9s.3.9 1 .9c.5 0 1-.4 1-.9s-.5-.9-1-.9ZM20.4 10.7a2 2 0 0 1 2-1l1.7.3c.7.1 1.2.6 1.4 1.4v1c.2.7-.1 1.2-.8 1.7-.8.5-1.8.7-2.8.5-.8-.1-1.4-.4-1.7-1.2-.3-1-.3-1.9.2-2.7ZM6.5 10.7l.8-.4h1.5c1.6 0 2 .3 2.1 1.7.2 1.2-.4 2.4-1.4 2.8a3 3 0 0 1-3.1-.6c-.8-.8-.7-2.7.1-3.5ZM13.1 11.2c.4-.8 1-1 1.8-1l1 .3c.4 0 .6.1.8.3 1.2.7 1.4 2.4.6 3.4-.6.8-1.4 1-2.2.9-1.5-.1-2.3-1-2.3-2.4 0-.6.1-1 .3-1.5Z"/>
</svg>
