<svg xmlns="http://www.w3.org/2000/svg" width="76" height="46" viewBox="0 0 76 46">
  <path d="M15.342 22.734V14.94h-2.814v-2.433h8.326v2.434h-2.851v7.793h-2.661Zm14.028 0-.608-1.825h-3.536l-.608 1.825h-2.813l3.877-10.227h2.661l3.878 10.227H29.37Zm-2.357-7.337-.989 3.307h1.977l-.988-3.307Zm6.843 4.029 2.28-.418c.267.913.837 1.559 2.054 1.559.874 0 1.634-.38 1.634-.76 0-.457-.418-.647-1.482-.913l-1.293-.342c-2.243-.608-3.08-1.52-3.08-2.89 0-1.9 1.674-3.345 4.183-3.345s4.181 1.407 4.181 3.384l-2.28.418c-.19-.874-.685-1.52-1.901-1.52-.913 0-1.483.38-1.483.798 0 .38.418.57 1.33.798l1.293.342c2.395.646 3.194 1.635 3.194 2.928 0 1.862-1.711 3.345-4.334 3.345-2.586.076-4.296-1.445-4.296-3.384Zm13.724 3.308V14.94h-3.156v-2.433h8.668v2.434h-2.851v7.793H47.58Zm10.264 0V19.35l-3.84-6.88h3.118l2.053 4.371 2.053-4.372h3.155l-3.878 6.882v3.383h-2.66ZM28.153 25.89c2.395 0 4.144 1.71 4.144 4.029s-1.749 4.068-4.106 4.068c-2.357 0-4.143-1.749-4.143-4.03-.038-2.319 1.748-4.03 4.105-4.068Zm.038 1.9c-1.178 0-2.053.875-2.09 2.129 0 1.216.874 2.167 2.052 2.167 1.179 0 2.053-.912 2.053-2.129.038-1.255-.836-2.129-2.015-2.167Zm-5.854.913c-.57.19-1.14.342-1.673.494-.836-1.255-1.635-1.635-2.661-1.33-.875.265-1.407 1.064-1.407 2.128 0 .95.609 1.787 1.445 2.015 1.064.304 1.863-.114 2.623-1.33.532.151 1.102.341 1.673.494-.152.836-.532 1.52-1.179 2.014-1.9 1.483-5.626.989-6.5-2.129-.457-1.672.152-3.459 1.482-4.41 1.369-.988 3.46-1.026 4.828-.075.76.494 1.179 1.216 1.369 2.128Zm32.2 3.307v1.825h-5.398v-7.756h5.398v1.825h-3.384v1.065h2.966v1.862h-2.966v1.179h3.384Zm4.486-3.003h2.927v1.824h-2.965v1.179h3.383v1.825H56.97v-7.756h5.398v1.787h-3.345v1.14Zm-22.658 4.828H34.35v-7.756h5.398v1.787h-3.383v1.103h2.927v1.862h-2.927v3.004Zm7.375-3.004v3.004h-1.977v-7.756h5.36v1.787h-3.345v1.103h2.927v1.862H43.74Z"/>
  <path d="M74.876 7.717C63.736 2.661 51.116 0 38.456 0 25.758 0 13.175 2.661 2.036 7.717 1.314 8.06.857 8.782.972 9.504c1.406 8.136 2.889 18.02 4.447 29.31.076.61.533 1.141 1.14 1.37C16.635 44.023 27.356 46 38.457 46c10.949 0 21.973-2.015 31.896-5.816.646-.229 1.064-.76 1.14-1.37 1.559-11.29 3.041-21.136 4.448-29.31.114-.722-.342-1.444-1.064-1.787Zm-1.711 1.94c-1.369 7.983-2.813 17.525-4.296 28.436-9.504 3.573-19.997 5.474-30.413 5.474-10.569 0-20.833-1.825-30.413-5.474C6.56 27.22 5.115 17.64 3.747 9.656 14.39 4.904 26.405 2.433 38.494 2.433c12.051 0 24.026 2.471 34.67 7.223Z"/>
</svg>
