<svg width="260" height="260" viewBox="0 0 260 260" fill="none" xmlns="http://www.w3.org/2000/svg">
<rect width="260" height="260" rx="40" fill="#0077F9"/>
<path d="M170.79 149.023C155.339 145.62 136.18 145.62 113.931 145.62H79.9399V114.07H113.931C136.18 114.07 155.648 114.07 170.79 110.977C196.438 104.791 201.691 89.9438 201.691 78.1898C201.691 66.4358 196.747 51.2794 171.099 45.0931C155.339 42 136.18 42 113.622 42H58V217.691H113.931C136.18 217.691 155.648 217.691 170.79 214.598C196.438 208.411 201.691 193.564 201.691 181.81C201.691 170.056 196.438 154.9 170.79 149.023ZM179.751 77.8805C179.751 90.2531 160.283 92.109 113.931 92.109H79.9399V64.2706H113.931C160.283 64.2706 179.751 66.1265 179.751 78.1898V77.8805ZM113.622 195.729H79.6309V167.891H113.622C159.974 167.891 179.442 170.056 179.442 182.119C179.442 194.183 159.974 195.729 113.622 195.729Z" fill="white"/>
</svg>
