<svg xmlns="http://www.w3.org/2000/svg" fill="#0057b8" viewBox="0 0 64 64">
  <defs/>
  <path d="M56 31h-5.9l5.3-6.4a1 1 0 10-1.5-1.2L47.5 31h-13l6-6H48a1 1 0 000-2h-5.6l6.3-6.3a1 1 0 00-1.4-1.4L41 21.6V16a1 1 0 00-2 0v7.6l-6 6V16.4l7.7-7.7a1 1 0 00-1.4-1.4L33 13.6V8a1 1 0 00-2 0v5.6l-6.3-6.3a1 1 0 00-1.4 1.4l7.7 7.7v13.2l-6-6V16a1 1 0 00-2 0v5.6l-6.3-6.3a1 1 0 00-1.4 1.4l6.3 6.3H16a1 1 0 000 2h7.6l6 6H16.4l-7.7-7.7a1 1 0 00-1.4 1.4l6.3 6.3H8a1 1 0 000 2h5.6l-6.3 6.3a1 1 0 101.4 1.4l7.7-7.7h13.2l-6 6H16a1 1 0 000 2h5.6l-6.3 6.3a1 1 0 101.4 1.4l6.3-6.3V48a1 1 0 002 0v-7.6l6-6v13.2l-7.7 7.7a1 1 0 001.4 1.4l6.3-6.3V56a1 1 0 002 0v-5.6l6.3 6.3a1 1 0 001.4-1.4L33 47.6V34.4l6 6V48a1 1 0 002 0v-5.6l6.3 6.3a1 1 0 001.4-1.4L42.4 41H48a1 1 0 000-2h-7.6l-6-6h13.1l6.4 7.6a1 1 0 101.5-1.2L50.1 33H56a1 1 0 000-2z"/>
</svg>
