<svg xmlns="http://www.w3.org/2000/svg" viewBox="-304 397 101 74" xml:space="preserve">
  <defs/>
  <path fill="#231f20" d="M-254 471c-15 0-30-3-43-10l-1-1a1421 1421 0 00-5-50 103 103 0 0198 0l1 2a1732 1732 0 00-7 49c-13 7-28 10-43 10m-42-11"/>
  <path fill="#fff" d="M-282 453s-4-1-4-6c-1-1 0-3 1-4l3-1h1v-5h-1s-5-1-8 3c-2 2-3 4-3 7l3 8c3 4 7 4 7 4h1v-6zM-266 449l-1-7c-1-3-3-5-7-5-5 1-6 5-6 12 0 8 2 12 6 13 7 0 8-6 8-13m-6 8c-2 0-2-4-2-8-1-4 0-7 1-7 1-1 1 1 2 3v4l-1 8M-277 413v-3-2h-1l-5 1-12 6v5h1l4-2 1 16h7l-1-19 6-1v-1M-226 409l3 13v12h7l1-11 4-8h-1l-3-2h-1l-2 6-2-8-6-2zM-217 451l-3 1v-4h2v-4h-2v-2l1-1h3v-4h-7l-1 21 3-1 4-2v-4c0 1 0 1 0 0M-228 409v-1h-2l-4-1-3-1h-4-1l-2-1v6l3 1h1v17l3 1 3 4h2l1-20h3v-2-3zM-256 439c-4 0-6-2-6-2l-2 2 1 24h7l-1-10h3v-5h-3v-6h4v-4l-3 1zM-245 437h-5v26h7v-10h2v-5h-2v-6h4v-1l-6-4zM-226 437h-7c0 1-1 3-4 4v20h4l6-2v-4c1 0 0 0 0 0h-3v-4l2-1v-3-1h-2l1-4h3v-5zM-273 429c0-1 1-4 5-3 5 1 7 7 7 7l1-3-5-24h-1-3l-4 1-4 27h4v-5zm3-16h1l1 9h-2-1l1-9zM-252 422c0 2-4 3-6 4l1 2 3-1 5 1c2 2 2 3 1 4 2-1 4-3 5-6 1-8-8-11-9-14 0-2 2-3 3-3l-2-5c-1 0-9 3-8 9 1 4 7 6 7 9z" class="st1"/>
  <path fill="#fff" d="M-265 435h-1v-1h-1v-1h-1l-2-2-1-1v-1l1 1h1v1h1l1 1 1 1 1 1h1v1h1v-2l-1-2c-2-3-5-3-6-3l-2 1v3l2 2 3 2 1 1 2-1-1-1M-249 431l-1-1v1h-1v1h-1l-1 1h-1-1v1h-1l-1 1h-1v-1h1l1-1 1-1h1l1-1 2-1 1-1h-2l-4 1-3 2-1 1v3c0 1 2 2 4 1l3-1 3-2 1-2v-1M-236 434l-1-2-2-1h-3-2v1h1l1 1h1l2 2a68 68 0 003 1l-1 1-1-1h-1l-1-1-1-1h-1l-1-1h-1v-1h-1v1l1 2 1 1 1 1 4 2 2-1 1-1-1-3" class="st1"/>
</svg>
